{"title":"Thor.The.Dark.World.2013.CAM.READNFO.XViD-FANTA","uid":9135342,"size":1399247871,"categoryP":"video","categoryS":"movies","magnet":"?xt=urn:btih:8ba91285d6fe7b23ea644602db27975bac5b6263&amp;dn=Thor.The.Dark.World.2013.CAM.READNFO.XViD-FANTA&amp;tr=udp%3A%2F%2Ftracker.openbittorrent.com%3A80&amp;tr=udp%3A%2F%2Fopen.demonii.com%3A1337&amp;tr=udp%3A%2F%2Ftracker.coppersurfer.tk%3A6969&amp;tr=udp%3A%2F%2Fexodus.desync.com%3A6969","seeders":19,"leechers":0,"uploader":"xxxlavalxxx","files":-1,"time":1383402454,"description":"\n &lt;a href=&quot;\nhttp://www.imdb.com/title/tt1981115/&quot; rel=&quot;nofollow&quot; target=&quot;_NEW&quot;&gt;\nhttp://www.imdb.com/title/tt1981115/&lt;/a&gt;\n\n\nFaced with an enemy that even Odin and Asgard cannot withstand, Thor must embark on his most perilous and personal journey yet, one that will reunite him with Jane Foster and force him to sacrifice everything to save us all.\n\nDirector: Alan Taylor\nWriters: Christopher Yost (screenplay), Christopher Markus (screenplay)\nStars: Chris Hemsworth, Natalie Portman, Tom Hiddleston\nGenres: Action | Adventure | Fantasy\nCountry: USA\nLanguage: English\n\n\n\nFormat                                   : AVI\nFormat/Info                              : Audio Video Interleave\nFormat profile                           : OpenDML\nFormat settings                          : rec\nFile size                                : 1.28 GiB\nDuration                                 : 1h 27mn\nOverall bit rate                         : 2 086 Kbps\nWriting application                      : AVI-Mux GUI 1.17.8.3, Feb 16 201019:42:50\n\nVideo\nID                                       : 0\nFormat                                   : MPEG-4 Visual\nFormat profile                           : Advanced Simple@L5\nFormat settings, BVOP                    : 1\nFormat settings, QPel                    : No\nFormat settings, GMC                     : No warppoints\nFormat settings, Matrix                  : Default (H.263)\nMuxing mode                              : Packed bitstream\nCodec ID                                 : XVID\nCodec ID/Hint                            : XviD\nDuration                                 : 1h 27mn\nBit rate                                 : 1 888 Kbps\nWidth                                    : 720 pixels\nHeight                                   : 320 pixels\nDisplay aspect ratio                     : 2.25:1\nFrame rate                               : 29.970 fps\nColor space                              : YUV\nChroma subsampling                       : 4:2:0\nBit depth                                : 8 bits\nScan type                                : Progressive\nCompression mode                         : Lossy\nBits/(Pixel*Frame)                       : 0.273\nStream size                              : 1.16 GiB (91%)\nWriting library                          : XviD 64\n\nAudio\nID                                       : 1\nFormat                                   : AC-3\nFormat/Info                              : Audio Coding 3\nMode extension                           : CM (complete main)\nFormat settings, Endianness              : Big\nCodec ID                                 : 2000\nDuration                                 : 1h 27mn\nBit rate mode                            : Constant\nBit rate                                 : 192 Kbps\nChannel(s)                               : 2 channels\nChannel positions                        : Front: L R\nSampling rate                            : 44.1 KHz\nBit depth                                : 16 bits\nCompression mode                         : Lossy\nStream size                              : 120 MiB (9%)\nAlignment                                : Aligned on interleaves\nInterleave, duration                     : 70 ms (2.09 video frames)\nInterleave, preload duration             : 208 ms\nTitle                                    : Thor 2 moviesounds-New\n\n\ninfo\n &lt;a href=&quot;\nhttp://i.imgur.com/nZpFKOJ.png&quot; rel=&quot;nofollow&quot; target=&quot;_NEW&quot;&gt;\nhttp://i.imgur.com/nZpFKOJ.png&lt;/a&gt;\n\n\n\nscreens\n &lt;a href=&quot;\nhttp://i.imgur.com/bWvFEmW.jpg&quot; rel=&quot;nofollow&quot; target=&quot;_NEW&quot;&gt;\nhttp://i.imgur.com/bWvFEmW.jpg&lt;/a&gt; &lt;a href=&quot;\nhttp://i.imgur.com/D0dhbM3.jpg&quot; rel=&quot;nofollow&quot; target=&quot;_NEW&quot;&gt;\nhttp://i.imgur.com/D0dhbM3.jpg&lt;/a&gt; &lt;a href=&quot;\nhttp://i.imgur.com/4cCoijM.jpg&quot; rel=&quot;nofollow&quot; target=&quot;_NEW&quot;&gt;\nhttp://i.imgur.com/4cCoijM.jpg&lt;/a&gt; &lt;a href=&quot;\nhttp://i.imgur.com/CnRfRZU.jpg&quot; rel=&quot;nofollow&quot; target=&quot;_NEW&quot;&gt;\nhttp://i.imgur.com/CnRfRZU.jpg&lt;/a&gt; &lt;a href=&quot;\nhttp://i.imgur.com/DvylcDr.jpg&quot; rel=&quot;nofollow&quot; target=&quot;_NEW&quot;&gt;\nhttp://i.imgur.com/DvylcDr.jpg&lt;/a&gt; &lt;a href=&quot;\nhttp://i.imgur.com/V9DPqDb.jpg&quot; rel=&quot;nofollow&quot; target=&quot;_NEW&quot;&gt;\nhttp://i.imgur.com/V9DPqDb.jpg&lt;/a&gt;\n","torrent":{"xt":"urn:btih:8ba91285d6fe7b23ea644602db27975bac5b6263","amp;dn":"Thor.The.Dark.World.2013.CAM.READNFO.XViD-FANTA","amp;tr":["udp%3A%2F%2Ftracker.openbittorrent.com%3A80","udp%3A%2F%2Fopen.demonii.com%3A1337","udp%3A%2F%2Ftracker.coppersurfer.tk%3A6969","udp%3A%2F%2Fexodus.desync.com%3A6969"],"infoHash":"8ba91285d6fe7b23ea644602db27975bac5b6263","infoHashBuffer":{"type":"Buffer","data":[139,169,18,133,214,254,123,35,234,100,70,2,219,39,151,91,172,91,98,99]},"announce":[],"urlList":[]}}